<svg width="32" height="32" viewBox="0 0 32 32" fill="none" xmlns="http://www.w3.org/2000/svg">
<g clip-path="url(#clip0_11905_12144)">
<g filter="url(#filter0_b_11905_12144)">
<circle cx="16" cy="16" r="16" fill="white" fill-opacity="0.7"/>
</g>
<path fill-rule="evenodd" clip-rule="evenodd" d="M11.9263 19.3048H9C8.44772 19.3048 8 18.8571 8 18.3048V13.6992C8 13.1469 8.44772 12.6992 9 12.6992H11.9067L14.2896 10.2955C14.9183 9.66129 15.9998 10.1065 15.9998 10.9995V20.9958C15.9998 21.8899 14.916 22.3346 14.288 21.6981L11.9263 19.3048Z" fill="black"/>
<path d="M19 13C20.5162 14 20.1371 18 19 19" stroke="black" stroke-width="1.5" stroke-linecap="round"/>
<path d="M21 10C23.8211 12.5 23.5076 20 21 22" stroke="black" stroke-width="1.5" stroke-linecap="round"/>
</g>
<defs>
<filter id="filter0_b_11905_12144" x="-4" y="-4" width="40" height="40" filterUnits="userSpaceOnUse" color-interpolation-filters="sRGB">
<feFlood flood-opacity="0" result="BackgroundImageFix"/>
<feGaussianBlur in="BackgroundImageFix" stdDeviation="2"/>
<feComposite in2="SourceAlpha" operator="in" result="effect1_backgroundBlur_11905_12144"/>
<feBlend mode="normal" in="SourceGraphic" in2="effect1_backgroundBlur_11905_12144" result="shape"/>
</filter>
<clipPath id="clip0_11905_12144">
<rect y="32" width="32" height="32" rx="4" transform="rotate(-90 0 32)" fill="white"/>
</clipPath>
</defs>
</svg>
