<svg width="32" height="32" viewBox="0 0 32 32" fill="none" xmlns="http://www.w3.org/2000/svg">
<g clip-path="url(#clip0_11905_12145)">
<g filter="url(#filter0_b_11905_12145)">
<circle cx="16" cy="16" r="16" fill="white" fill-opacity="0.7"/>
</g>
<path fill-rule="evenodd" clip-rule="evenodd" d="M11.9263 19.3068H9C8.44772 19.3068 8 18.8591 8 18.3068V13.7012C8 13.1489 8.44772 12.7012 9 12.7012H11.9067L14.2896 10.2974C14.9183 9.66324 15.9998 10.1084 15.9998 11.0015V20.9977C15.9998 21.8918 14.916 22.3365 14.288 21.7001L11.9263 19.3068Z" fill="black"/>
<path d="M18.1937 14.1292C17.9354 13.8708 17.9354 13.452 18.1937 13.1937C18.452 12.9354 18.8708 12.9354 19.1292 13.1937L23.8063 17.8708C24.0646 18.1292 24.0646 18.548 23.8063 18.8063C23.548 19.0646 23.1292 19.0646 22.8708 18.8063L18.1937 14.1292Z" fill="black"/>
<path d="M22.8708 13.1937C23.1292 12.9354 23.548 12.9354 23.8063 13.1937C24.0646 13.452 24.0646 13.8708 23.8063 14.1292L19.1292 18.8063C18.8708 19.0646 18.452 19.0646 18.1937 18.8063C17.9354 18.548 17.9354 18.1292 18.1937 17.8708L22.8708 13.1937Z" fill="black"/>
</g>
<defs>
<filter id="filter0_b_11905_12145" x="-4" y="-4" width="40" height="40" filterUnits="userSpaceOnUse" color-interpolation-filters="sRGB">
<feFlood flood-opacity="0" result="BackgroundImageFix"/>
<feGaussianBlur in="BackgroundImageFix" stdDeviation="2"/>
<feComposite in2="SourceAlpha" operator="in" result="effect1_backgroundBlur_11905_12145"/>
<feBlend mode="normal" in="SourceGraphic" in2="effect1_backgroundBlur_11905_12145" result="shape"/>
</filter>
<clipPath id="clip0_11905_12145">
<rect y="32" width="32" height="32" rx="4" transform="rotate(-90 0 32)" fill="white"/>
</clipPath>
</defs>
</svg>
